<svg width="424" height="126" viewBox="0 0 424 126" fill="none" xmlns="http://www.w3.org/2000/svg">
<path d="M316.608 70.728C317.163 70.728 317.589 70.984 317.888 71.496C318.229 72.008 318.4 72.712 318.4 73.608C318.4 75.272 317.995 76.5947 317.184 77.576C314.795 80.4347 312.469 82.44 310.208 83.592C307.989 84.744 305.301 85.32 302.144 85.32C299.925 85.32 297.877 85.0427 296 84.488C294.123 83.9333 291.84 83.1013 289.152 81.992C286.848 81.0107 284.8 80.2213 283.008 79.624C281.045 81.7573 279.275 83.2507 277.696 84.104C276.117 84.9147 274.453 85.32 272.704 85.32C270.357 85.32 268.48 84.7867 267.072 83.72C265.664 82.6107 264.96 81.1813 264.96 79.432C264.96 78.1093 265.387 76.8933 266.24 75.784C267.136 74.6747 268.373 73.8 269.952 73.16C271.531 72.52 273.365 72.2 275.456 72.2C276.651 72.2 277.547 72.2213 278.144 72.264C286.507 61.8533 294.059 50.8667 300.8 39.304C297.131 38.664 293.397 38.344 289.6 38.344C284.693 38.344 281.088 38.92 278.784 40.072C276.523 41.1813 275.392 42.952 275.392 45.384C275.392 46.1093 275.477 46.728 275.648 47.24C275.819 47.752 276.075 48.3493 276.416 49.032C276.8 49.8 276.992 50.3547 276.992 50.696C276.992 51.5493 276.587 52.2747 275.776 52.872C275.008 53.4267 274.112 53.704 273.088 53.704C272.021 53.704 271.147 53.384 270.464 52.744C269.653 52.0187 268.992 51.0373 268.48 49.8C268.011 48.52 267.776 47.0907 267.776 45.512C267.776 40.52 269.845 36.8293 273.984 34.44C278.123 32.0507 283.584 30.856 290.368 30.856C293.739 30.856 297.173 31.048 300.672 31.432C304.213 31.816 307.52 32.4347 310.592 33.288C311.872 33.6293 312.725 34.12 313.152 34.76C313.579 35.3573 313.792 36.1467 313.792 37.128C313.792 38.28 313.493 39.176 312.896 39.816C312.299 40.456 311.467 40.776 310.4 40.776H309.952C305.344 48.2853 300.672 55.496 295.936 62.408C292.139 67.912 289.472 71.6453 287.936 73.608C290.411 74.1627 292.565 74.6747 294.4 75.144C296.661 75.7413 298.475 76.1893 299.84 76.488C301.248 76.744 302.464 76.872 303.488 76.872C305.963 76.872 308.075 76.4667 309.824 75.656C311.616 74.8027 313.301 73.4587 314.88 71.624C315.392 71.0267 315.968 70.728 316.608 70.728ZM321.581 50.952C319.789 50.952 318.445 50.5467 317.549 49.736C316.653 48.8827 316.205 47.7093 316.205 46.216C316.205 44.7227 316.781 43.4853 317.933 42.504C319.128 41.48 320.6 40.968 322.349 40.968C323.928 40.968 325.208 41.352 326.189 42.12C327.17 42.888 327.661 43.976 327.661 45.384C327.661 47.0907 327.106 48.456 325.997 49.48C324.888 50.4613 323.416 50.952 321.581 50.952ZM321.069 85.32C318.296 85.32 316.269 84.3387 314.989 82.376C313.752 80.4133 313.133 77.8107 313.133 74.568C313.133 72.648 313.368 70.1947 313.837 67.208C314.349 64.1787 314.989 61.3627 315.757 58.76C316.141 57.3947 316.653 56.456 317.293 55.944C317.933 55.432 318.957 55.176 320.365 55.176C322.541 55.176 323.629 55.9013 323.629 57.352C323.629 58.4187 323.224 60.8933 322.413 64.776C321.389 69.4693 320.877 72.648 320.877 74.312C320.877 75.592 321.048 76.5733 321.389 77.256C321.73 77.9387 322.306 78.28 323.117 78.28C323.885 78.28 324.845 77.7467 325.997 76.68C327.149 75.6133 328.685 73.928 330.605 71.624C331.117 71.0267 331.693 70.728 332.333 70.728C332.888 70.728 333.314 70.984 333.613 71.496C333.954 72.008 334.125 72.712 334.125 73.608C334.125 75.3147 333.72 76.6373 332.909 77.576C328.685 82.7387 324.738 85.32 321.069 85.32ZM363.123 70.728C363.678 70.728 364.104 70.984 364.403 71.496C364.744 72.008 364.915 72.712 364.915 73.608C364.915 75.3147 364.51 76.6373 363.699 77.576C361.864 79.8373 359.88 81.6933 357.747 83.144C355.656 84.5947 353.267 85.32 350.579 85.32C348.318 85.32 346.483 84.5093 345.075 82.888C342.643 84.4667 340.104 85.2773 337.459 85.32C336.904 93.5547 335.646 100.424 333.683 105.928C331.72 111.475 328.84 114.248 325.043 114.248C322.739 114.248 321.032 113.416 319.923 111.752C318.814 110.088 318.259 107.784 318.259 104.84C318.259 100.659 319.219 95.7733 321.139 90.184C323.059 84.6373 326.024 78.5147 330.035 71.816C330.035 65.5867 329.992 61.256 329.907 58.824C329.864 57.5867 330.355 56.6053 331.379 55.88C332.403 55.1547 333.683 54.792 335.219 54.792C336.115 54.792 336.755 54.984 337.139 55.368C337.566 55.7093 337.8 56.4133 337.843 57.48C337.843 58.5467 337.864 59.336 337.907 59.848C339.272 58.1413 340.616 56.9253 341.939 56.2C343.262 55.432 344.67 55.048 346.163 55.048C348.552 55.048 350.494 56.008 351.987 57.928C353.523 59.848 354.291 62.3653 354.291 65.48C354.291 67.7413 353.928 69.9387 353.203 72.072C352.478 74.2053 351.475 76.1467 350.195 77.896C351.091 78.152 351.838 78.28 352.435 78.28C353.843 78.28 355.187 77.768 356.467 76.744C357.747 75.72 359.39 74.0133 361.395 71.624C361.907 71.0267 362.483 70.728 363.123 70.728ZM337.779 79.176C339.315 78.8347 340.723 78.0027 342.003 76.68C343.326 75.3147 344.371 73.6507 345.139 71.688C345.907 69.6827 346.291 67.592 346.291 65.416C346.291 64.136 346.035 63.176 345.523 62.536C345.011 61.8533 344.328 61.512 343.475 61.512C341.939 61.512 340.083 63.1333 337.907 66.376C337.864 68.2533 337.843 71.0053 337.843 74.632C337.843 76.5947 337.822 78.1093 337.779 79.176ZM325.555 107.976C326.707 107.976 327.667 105.459 328.435 100.424C329.203 95.432 329.694 89.2027 329.907 81.736C328.072 86.0027 326.622 90.0773 325.555 93.96C324.488 97.8427 323.955 101.107 323.955 103.752C323.955 105.117 324.126 106.163 324.467 106.888C324.766 107.613 325.128 107.976 325.555 107.976ZM384.016 70.728C384.57 70.728 384.997 70.984 385.296 71.496C385.637 72.008 385.808 72.712 385.808 73.608C385.808 75.3147 385.402 76.6373 384.592 77.576C382.757 79.8373 380.752 81.6933 378.576 83.144C376.442 84.5947 374.01 85.32 371.28 85.32C367.525 85.32 364.73 83.6133 362.896 80.2C361.104 76.7867 360.208 72.3707 360.208 66.952C360.208 61.7467 360.869 55.816 362.192 49.16C363.557 42.504 365.541 36.7867 368.144 32.008C370.789 27.2293 373.925 24.84 377.552 24.84C379.6 24.84 381.2 25.8 382.352 27.72C383.546 29.5973 384.144 32.3067 384.144 35.848C384.144 40.9253 382.736 46.8133 379.92 53.512C377.104 60.2107 373.285 66.8453 368.464 73.416C368.762 75.1653 369.253 76.424 369.936 77.192C370.618 77.9173 371.514 78.28 372.624 78.28C374.373 78.28 375.909 77.7893 377.232 76.808C378.554 75.784 380.24 74.056 382.288 71.624C382.8 71.0267 383.376 70.728 384.016 70.728ZM376.144 31.176C375.162 31.176 374.053 32.9467 372.816 36.488C371.578 40.0293 370.49 44.424 369.552 49.672C368.613 54.92 368.101 59.9547 368.016 64.776C371.045 59.784 373.456 54.792 375.248 49.8C377.04 44.7653 377.936 40.1787 377.936 36.04C377.936 32.7973 377.338 31.176 376.144 31.176ZM389.019 50.952C387.227 50.952 385.883 50.5467 384.987 49.736C384.091 48.8827 383.643 47.7093 383.643 46.216C383.643 44.7227 384.219 43.4853 385.371 42.504C386.565 41.48 388.037 40.968 389.787 40.968C391.365 40.968 392.645 41.352 393.627 42.12C394.608 42.888 395.099 43.976 395.099 45.384C395.099 47.0907 394.544 48.456 393.435 49.48C392.325 50.4613 390.853 50.952 389.019 50.952ZM388.507 85.32C385.733 85.32 383.707 84.3387 382.427 82.376C381.189 80.4133 380.571 77.8107 380.571 74.568C380.571 72.648 380.805 70.1947 381.275 67.208C381.787 64.1787 382.427 61.3627 383.195 58.76C383.579 57.3947 384.091 56.456 384.731 55.944C385.371 55.432 386.395 55.176 387.803 55.176C389.979 55.176 391.067 55.9013 391.067 57.352C391.067 58.4187 390.661 60.8933 389.851 64.776C388.827 69.4693 388.315 72.648 388.315 74.312C388.315 75.592 388.485 76.5733 388.827 77.256C389.168 77.9387 389.744 78.28 390.555 78.28C391.323 78.28 392.283 77.7467 393.435 76.68C394.587 75.6133 396.123 73.928 398.043 71.624C398.555 71.0267 399.131 70.728 399.771 70.728C400.325 70.728 400.752 70.984 401.051 71.496C401.392 72.008 401.563 72.712 401.563 73.608C401.563 75.3147 401.157 76.6373 400.347 77.576C396.123 82.7387 392.176 85.32 388.507 85.32ZM410.145 106.44C408.993 106.44 408.097 106.163 407.457 105.608C406.817 105.053 406.518 104.072 406.561 102.664C406.646 100.147 406.923 97.032 407.393 93.32C407.905 89.608 408.566 85.768 409.377 81.8C408.609 83.0373 407.734 83.9333 406.753 84.488C405.814 85.0427 404.726 85.32 403.489 85.32C401.142 85.32 399.222 84.4027 397.729 82.568C396.278 80.6907 395.553 78.1307 395.553 74.888C395.553 71.4747 396.342 68.2533 397.921 65.224C399.499 62.152 401.59 59.6987 404.193 57.864C406.838 55.9867 409.633 55.048 412.577 55.048C413.003 55.048 413.451 55.112 413.921 55.24C414.39 55.368 414.753 55.56 415.009 55.816C415.35 54.7067 415.905 53.896 416.673 53.384C417.441 52.872 418.465 52.616 419.745 52.616C421.025 52.616 421.899 52.8293 422.369 53.256C422.838 53.6827 423.03 54.3013 422.945 55.112C422.859 55.7093 422.433 57.5867 421.665 60.744C420.257 66.3333 419.105 71.4747 418.209 76.168C416.417 85.64 415.115 94.4507 414.305 102.6C414.177 104.051 413.729 105.053 412.961 105.608C412.235 106.163 411.297 106.44 410.145 106.44ZM406.561 78.856C407.585 78.856 408.481 78.3227 409.249 77.256C410.017 76.1893 410.635 74.696 411.105 72.776L413.793 61C411.915 61.0427 410.187 61.7253 408.609 63.048C407.03 64.328 405.793 66.0347 404.897 68.168C404.001 70.3013 403.553 72.5627 403.553 74.952C403.553 76.2747 403.809 77.256 404.321 77.896C404.875 78.536 405.622 78.856 406.561 78.856Z" fill="#471D79"/>
<rect width="248" height="126" rx="63" fill="#F2E7FF"/>
<rect x="132" y="9" width="106" height="108" rx="53" fill="#471D79"/>
<circle cx="185" cy="63" r="19" fill="#FFFEFE"/>
<rect x="70" y="26" width="82" height="13" rx="6.5" fill="url(#paint0_linear_22_2)"/>
<rect x="30" y="53" width="111" height="13" rx="6.5" fill="url(#paint1_linear_22_2)"/>
<rect x="70" y="88" width="82" height="13" rx="6.5" fill="url(#paint2_linear_22_2)"/>
<defs>
<linearGradient id="paint0_linear_22_2" x1="70" y1="32.5" x2="152" y2="32.5" gradientUnits="userSpaceOnUse">
<stop stop-color="#D9D9D9" stop-opacity="0"/>
<stop offset="0.628511" stop-color="#471D79"/>
</linearGradient>
<linearGradient id="paint1_linear_22_2" x1="30" y1="59.5" x2="141" y2="59.5" gradientUnits="userSpaceOnUse">
<stop stop-color="#D9D9D9" stop-opacity="0"/>
<stop offset="0.628511" stop-color="#471D79"/>
</linearGradient>
<linearGradient id="paint2_linear_22_2" x1="70" y1="94.5" x2="152" y2="94.5" gradientUnits="userSpaceOnUse">
<stop stop-color="#D9D9D9" stop-opacity="0"/>
<stop offset="0.628511" stop-color="#471D79"/>
</linearGradient>
</defs>
</svg>
